# xmcd
#
# Track frame offsets:
#	150
#	7383
#	25723
#	43450
#	64840
#	82630
#	99239
#	120336
#	138091
#	160039
#	177793
#	196662
#	212492
#	231349
#	252947
#	271910
#	291925
#	314371
#
# Disc length: 4417
#
# Revision: 1
# Processed by: cddbd v1.5.1PL0 Copyright (c) Steve Scherf et al.
# Submitted via: CDex 1.51
# Normalized: r0:TRMNUM
#
DISCID=ec113f12
DTITLE=Various Artist - Miami Beach
DYEAR=2003
DGENRE=Salsa
TTITLE0=Intro - Trip To South Beach
TTITLE1=Lee Cabrera - Shake it (No Te Muevas Tanto)
TTITLE2=Analiyah - Don't Know What To Tell Ya
TTITLE3=Room 5ft. Oliver Cheatham - Make Luv
TTITLE4=Chocolate Puma - A Star is Born
TTITLE5=M-Factor - Come Together
TTITLE6=E-Funk ft. Donica Thornton - Shout
TTITLE7=A.I.3 - My Thing
TTITLE8=Kid Creme - Hypnotising
TTITLE9=Alex van Alff - Can't Stop
TTITLE10=Risen From The Rank - Dark Lady
TTITLE11=Nu Rican Kidz - Excuse Me
TTITLE12=Soho - Hidden Sun
TTITLE13=David Guetta ft. Barbara Tucker - Give Me Something
TTITLE14=Top Catz - Family Affair
TTITLE15=Garotos De Prala - Be Somebody
TTITLE16=DJ Rob Boskamp vs The Soulhustlers - Feelin' Me Baby
TTITLE17=Mo' Jones - You Cannot Stop Me
EXTD=YEAR: 2003
EXTT0=
EXTT1=
EXTT2=
EXTT3=
EXTT4=
EXTT5=
EXTT6=
EXTT7=
EXTT8=
EXTT9=
EXTT10=
EXTT11=
EXTT12=
EXTT13=
EXTT14=
EXTT15=
EXTT16=
EXTT17=
PLAYORDER=
